<svg width="41" height="22" viewBox="0 0 41 22" fill="none" xmlns="http://www.w3.org/2000/svg">
<g clip-path="url(#clip0_617_173)">
<path d="M21.052 6.20168L19.6849 6.19096C19.3862 6.18862 19.1139 6.39795 19.0422 6.69028L18.5327 8.67768C18.4321 9.08792 18.7682 9.52061 19.1874 9.52061H20.1556C20.204 9.52061 20.2781 9.55741 20.2543 9.65073L17.8246 19.1855C17.5528 20.26 18.3582 21.3374 19.4582 21.3374H20.9428C21.0948 21.3374 21.242 21.2833 21.3583 21.1847C21.7294 20.8431 27.5081 16.2351 28.1085 16.2351C28.276 16.2208 28.4416 16.2302 28.6023 16.2821C28.9504 16.3946 29.1452 16.6565 29.2576 16.9892C29.3926 17.3903 29.5339 17.7884 29.7059 18.1754C29.964 18.7562 30.2747 19.3053 30.6767 19.7968C31.0787 20.2882 31.5519 20.6922 32.1277 20.9645C32.7765 21.2712 33.4614 21.3716 34.1713 21.3149C34.8235 21.2627 35.4485 21.0928 36.0561 20.8536C36.8147 20.5546 37.5243 20.1617 38.2062 19.7154C38.8124 19.3165 39.395 18.8821 39.9508 18.4145C40.1156 18.2765 40.278 18.1361 40.4384 17.9933C40.6338 17.8221 40.8135 17.5402 40.8705 17.3109L40.9632 16.9368C41.0799 16.4671 40.805 16.4503 40.6909 16.5366C40.1701 16.9274 39.6442 17.3109 39.0807 17.6383C38.5724 17.9335 38.0432 18.1724 37.4521 18.2379C36.9505 18.2929 36.5032 18.1733 36.1312 17.8145C35.8265 17.5207 35.6348 17.155 35.4783 16.7682C35.275 16.2658 35.1425 15.7417 35.0183 15.2151C34.9299 14.8401 34.8477 14.4628 34.7405 14.0931C34.604 13.623 34.394 13.1854 34.0943 12.7965C33.74 12.3373 33.2887 12.0224 32.7247 11.8876C32.1716 11.7561 31.625 11.8088 31.0881 11.9827C30.2628 12.2499 28.7809 13.4852 28.0618 14.0876C27.4006 14.6413 24.7049 16.9877 23.3383 16.9877C22.9166 16.9877 22.6081 16.5867 22.7131 16.175C23.4895 13.1287 24.2445 10.0904 24.371 9.5914C24.3819 9.54829 24.4197 9.52072 24.4639 9.52061L26.5768 9.51467C26.8707 9.51382 27.1277 9.30278 27.2009 9.01594L27.697 7.01515C27.8022 6.60339 27.4938 6.20227 27.072 6.20227H25.3831C25.3199 6.20227 25.2736 6.14217 25.2893 6.08039L26.5777 1.01631C26.6655 0.671364 26.4002 0.508696 26.2241 0.508728H23.8023C23.0762 0.508801 22.463 0.980431 22.2783 1.7287L21.1464 6.12859C21.1353 6.17189 21.0964 6.20201 21.052 6.20168Z" fill="#7D1AD7"/>
<path d="M34.0113 5.06984C33.6832 5.30299 33.4352 5.61454 33.2177 5.94965C32.9567 6.35169 32.5877 7.01686 32.3198 7.67911C31.9319 8.63806 32.5168 9.56313 33.544 9.54955C34.2441 9.54031 34.9431 9.42622 35.2233 9.34779C35.7243 9.20754 36.2004 9.01079 36.632 8.71924C37.2517 8.30102 37.5715 7.71324 37.5505 6.95401C37.5395 6.57635 37.4379 6.21768 37.2649 5.88168C36.9381 5.24518 36.4298 4.82975 35.7357 4.67466C35.1062 4.53393 34.5309 4.70059 34.0113 5.06984Z" fill="#7D1AD7"/>
<path d="M16.8134 4.60794C17.9363 4.60794 18.8465 3.6903 18.8465 2.55834C18.8465 1.42637 17.9363 0.508728 16.8134 0.508728C15.6905 0.508728 14.7803 1.42637 14.7803 2.55834C14.7803 3.6903 15.6905 4.60794 16.8134 4.60794Z" fill="#7D1AD7"/>
<path d="M14.6689 6.21844C13.9331 6.21844 13.6267 6.78222 13.5655 7.06408L10.1831 20.3181C10.0701 20.7607 10.3606 21.3302 10.9899 21.3302H13.7813C14.0653 21.3302 14.1631 21.1348 14.1922 21.0209L17.8622 6.64115C17.9452 6.31584 17.6863 6.21844 17.5619 6.21844H14.6689Z" fill="#7D1AD7"/>
<path d="M11.6867 6.70024C8.54125 5.28014 2.32784 5.13132 0.289871 12.807C-1.08855 17.9986 2.60456 23.3457 8.06975 20.8738C8.32793 20.7635 8.44088 20.5165 8.47316 20.3396L9.23155 17.3613C9.31223 17.0444 8.95725 16.8369 8.70974 16.974C5.73621 18.6214 2.96476 16.547 4.46911 12.8233C5.9485 9.16128 8.97469 9.69051 10.5224 10.5528C10.7128 10.6589 10.9804 10.575 11.0388 10.3375L11.8511 7.03487C11.8705 6.95621 11.8617 6.78209 11.6867 6.70024Z" fill="#7D1AD7"/>
</g>
<defs>
<clipPath id="clip0_617_173">
<rect width="41" height="21" fill="white" transform="translate(0 0.5)"/>
</clipPath>
</defs>
</svg>
