<svg width="19" height="19" viewBox="0 0 19 19" fill="none" xmlns="http://www.w3.org/2000/svg">
<path d="M9.19742 6.0572C9.19742 7.79175 7.79126 9.1979 6.05672 9.1979C4.32217 9.1979 2.91602 7.79175 2.91602 6.0572C2.91602 4.32266 4.32209 2.9165 6.05672 2.9165C7.79134 2.9165 9.19742 4.32258 9.19742 6.0572Z" fill="#FFDD00"/>
<path fill-rule="evenodd" clip-rule="evenodd" d="M5.6084 0C5.98009 0 6.28148 0.301308 6.28148 0.672996V1.12171C6.28148 1.4934 5.98009 1.79471 5.6084 1.79471C5.23672 1.79471 4.93541 1.4934 4.93541 1.12171V0.672996C4.93541 0.301308 5.23672 0 5.6084 0ZM1.64295 1.64271C1.90578 1.37987 2.33185 1.37987 2.59469 1.64271L2.78857 1.83659C3.0514 2.09942 3.0514 2.5255 2.78857 2.78833C2.52573 3.05116 2.09966 3.05116 1.83682 2.78833L1.64295 2.59445C1.38011 2.33162 1.38011 1.90554 1.64295 1.64271ZM9.57386 1.64279C9.8367 1.90562 9.8367 2.33177 9.57386 2.59461L9.3799 2.78849C9.11707 3.05132 8.691 3.05132 8.42816 2.78849C8.16533 2.52565 8.16533 2.0995 8.42816 1.83667L8.62204 1.64279C8.88488 1.37995 9.31103 1.37995 9.57386 1.64279ZM0 5.6084C0 5.23672 0.301308 4.93541 0.672996 4.93541H1.12171C1.4934 4.93541 1.79471 5.23672 1.79471 5.6084C1.79471 5.98009 1.4934 6.28148 1.12171 6.28148H0.672996C0.301308 6.28148 0 5.98009 0 5.6084ZM2.78857 8.42856C3.0514 8.69139 3.0514 9.11755 2.78857 9.38038L2.59469 9.57418C2.33185 9.83701 1.90578 9.83701 1.64295 9.57418C1.38011 9.31135 1.38011 8.88519 1.64295 8.62244L1.83682 8.42856C2.09966 8.16572 2.52573 8.16572 2.78857 8.42856Z" fill="#FFDD00"/>
<path d="M13.4931 18.62C16.3251 18.62 18.6208 16.3513 18.6208 13.5526C18.6208 11.3346 17.1788 9.44929 15.1706 8.76268C14.8853 6.23101 12.7126 4.26245 10.0746 4.26245C7.24268 4.26245 4.94693 6.53121 4.94693 9.32983C4.94693 9.94883 5.05927 10.542 5.26486 11.0903C5.02372 11.0435 4.77458 11.0189 4.51967 11.0189C2.39562 11.0189 0.673828 12.7205 0.673828 14.8195C0.673828 16.9185 2.39562 18.62 4.51959 18.62H13.4931Z" fill="#507BE6"/>
</svg>
