<svg width="19" height="19" viewBox="0 0 19 19" fill="none" xmlns="http://www.w3.org/2000/svg">
<path d="M9.30992 18.6198C14.4516 18.6198 18.6198 14.4516 18.6198 9.30992C18.6198 8.87918 17.9742 8.80793 17.7514 9.1766C16.6917 10.9304 14.767 12.1029 12.5684 12.1029C9.22624 12.1029 6.51692 9.3936 6.51692 6.05142C6.51692 3.85288 7.68946 1.9281 9.44324 0.868379C9.81192 0.645604 9.74067 0 9.30992 0C4.1682 0 0 4.1682 0 9.30992C0 14.4516 4.1682 18.6198 9.30992 18.6198Z" fill="#FFF370"/>
<path d="M16.6655 0.286009C16.5157 -0.0953365 15.978 -0.0953365 15.8282 0.286009L15.4275 1.30568C15.3818 1.42213 15.29 1.51428 15.174 1.5602L14.158 1.96236C13.7781 2.1127 13.7781 2.65238 14.158 2.8028L15.174 3.20496C15.29 3.25088 15.3818 3.34303 15.4275 3.45941L15.8282 4.47915C15.978 4.86042 16.5157 4.86042 16.6655 4.47915L17.0663 3.45941C17.1119 3.34303 17.2038 3.25088 17.3197 3.20496L18.3358 2.8028C18.7157 2.65238 18.7157 2.1127 18.3358 1.96236L17.3197 1.5602C17.2038 1.51428 17.1119 1.42213 17.0663 1.30568L16.6655 0.286009Z" fill="#7D1AD7"/>
<path d="M13.0642 5.70642C12.9144 5.32507 12.3767 5.32507 12.2268 5.70642L12.0807 6.07819C12.035 6.19464 11.9432 6.28679 11.8272 6.33271L11.4568 6.47932C11.0769 6.62974 11.0769 7.16934 11.4568 7.31976L11.8272 7.46637C11.9432 7.51229 12.035 7.60444 12.0807 7.72089L12.2268 8.09266C12.3767 8.47401 12.9144 8.47401 13.0642 8.09266L13.2103 7.72089C13.256 7.60444 13.3478 7.51229 13.4638 7.46637L13.8343 7.31976C14.2142 7.16934 14.2142 6.62974 13.8343 6.47932L13.4638 6.33271C13.3478 6.28679 13.256 6.19464 13.2103 6.07819L13.0642 5.70642Z" fill="#7D1AD7"/>
</svg>
